<svg width="33" height="32" viewBox="0 0 33 32" fill="none" xmlns="http://www.w3.org/2000/svg">
<g clip-path="url(#clip0)">
<path d="M32.6227 7.25313C32.5546 6.82053 32.3568 6.41885 32.0554 6.10135C31.754 5.78385 31.3632 5.56554 30.935 5.47535L25.7209 4.32868C25.1617 4.20665 24.5829 4.20619 24.0236 4.32734C23.4642 4.44849 22.9374 4.68842 22.4787 5.03091L7.06731 16.2665L2.75034 16.0887C2.40331 16.0763 2.06118 16.1736 1.77256 16.3668C1.48394 16.56 1.26349 16.8393 1.14253 17.1651C1.02158 17.4908 1.00625 17.8464 1.09875 18.1813C1.19124 18.5163 1.38684 18.8135 1.65777 19.0309L6.0991 22.5242C6.63206 23.1731 6.98737 23.0487 15.8078 18.2398L16.6339 26.6131C16.6477 26.8415 16.7259 27.0614 16.8596 27.247C16.9932 27.4327 17.1768 27.5766 17.389 27.662C17.5416 27.7224 17.7045 27.7526 17.8686 27.7509C18.199 27.7408 18.5145 27.6113 18.7569 27.3865L20.8798 25.4487C21.0912 25.2527 21.2344 24.9942 21.2884 24.7109L23.2337 14.1331C26.4049 12.3554 29.4072 10.6842 31.5479 9.46646C31.9309 9.25087 32.239 8.92345 32.4311 8.52794C32.6231 8.13243 32.69 7.68768 32.6227 7.25313ZM30.6685 7.91979C28.4479 9.18202 25.3389 10.9509 21.9991 12.782L21.6349 12.9865L19.5652 24.2487L18.2595 25.4398L17.2824 15.3954L16.101 15.9998C9.73211 19.5554 7.60915 20.5865 6.88077 20.9065L3.06123 17.8754L7.57362 18.0709L23.5624 6.46202C23.8137 6.27399 24.1019 6.14118 24.408 6.07225C24.7141 6.00332 25.0314 5.99983 25.3389 6.06202L30.5353 7.18202C30.6154 7.19654 30.6887 7.23628 30.7446 7.29544C30.8005 7.35461 30.8361 7.43009 30.8462 7.51091C30.8645 7.58912 30.857 7.67114 30.825 7.7448C30.793 7.81846 30.7381 7.87983 30.6685 7.91979Z" fill="url(#paint0_linear)"/>
<path d="M7.06839 11.1467L10.2306 12.0356L11.6874 10.9778L8.1343 9.94673L9.73318 8.96895L14.592 8.82673L16.635 7.34229L9.73318 7.55562C9.51559 7.54384 9.29935 7.59639 9.1114 7.70673L6.77526 9.06673C6.58212 9.18122 6.42717 9.35037 6.32995 9.55285C6.23272 9.75533 6.19757 9.98208 6.22891 10.2045C6.26026 10.427 6.35671 10.6351 6.5061 10.8028C6.65549 10.9705 6.85114 11.0901 7.06839 11.1467Z" fill="url(#paint1_linear)"/>
</g>
<defs>
<linearGradient id="paint0_linear" x1="-28.6174" y1="-43.3944" x2="54.2896" y2="-40.0893" gradientUnits="userSpaceOnUse">
<stop stop-color="#005FAF"/>
<stop offset="1" stop-color="#0A356D"/>
</linearGradient>
<linearGradient id="paint1_linear" x1="-3.55592" y1="-2.16472" x2="23.6926" y2="-0.371117" gradientUnits="userSpaceOnUse">
<stop stop-color="#005FAF"/>
<stop offset="1" stop-color="#0A356D"/>
</linearGradient>
<clipPath id="clip0">
<rect width="31.9776" height="32" fill="white" transform="translate(0.849609)"/>
</clipPath>
</defs>
</svg>
