<svg width="12" height="16" viewBox="0 0 12 16" fill="none" xmlns="http://www.w3.org/2000/svg">
<path fill-rule="evenodd" clip-rule="evenodd" d="M5.71429 12.5714L11.4286 16V2.28571C11.4286 1.67951 11.1878 1.09812 10.7591 0.66947C10.3304 0.240816 9.74907 0 9.14286 0H2.28571C1.67951 0 1.09812 0.240816 0.66947 0.66947C0.240816 1.09812 0 1.67951 0 2.28571V16L5.71429 12.5714ZM1.14286 13.9817L5.71429 11.2389L10.2857 13.9817V2.28571C10.2857 1.98261 10.1653 1.69192 9.95098 1.47759C9.73665 1.26327 9.44596 1.14286 9.14286 1.14286H2.28571C1.98261 1.14286 1.69192 1.26327 1.47759 1.47759C1.26327 1.69192 1.14286 1.98261 1.14286 2.28571V13.9817Z" fill="white"/>
</svg>
