<svg width="15" height="20" viewBox="0 0 15 20" fill="none" xmlns="http://www.w3.org/2000/svg">
<path d="M3.42761 1.32402C3.58481 0.776824 4.08521 0.400024 4.65401 0.400024H10.954C11.824 0.400024 12.4384 1.25202 12.1624 2.07762L12.16 2.08722L10.6456 6.40002H13.7224C14.8588 6.40002 15.4108 7.77282 14.6428 8.57323L14.638 8.57802L4.22681 19.2076C3.32081 20.146 1.75481 19.2796 2.07161 18.0124L3.47561 12.3976H1.95521C1.75783 12.3978 1.56312 12.3521 1.38641 12.2642C1.2097 12.1763 1.05582 12.0485 0.936916 11.891C0.818009 11.7335 0.737317 11.5505 0.701203 11.3564C0.665088 11.1624 0.674537 10.9626 0.728806 10.7728L3.42881 1.32522L3.42761 1.32402ZM4.65521 1.60002C4.63895 1.59993 4.62312 1.60515 4.61011 1.6149C4.59711 1.62465 4.58766 1.6384 4.58321 1.65402L1.88321 11.1028C1.87121 11.1508 1.90721 11.1988 1.95521 11.1988H4.24361C4.33461 11.1989 4.42442 11.2197 4.50621 11.2596C4.58801 11.2995 4.65965 11.3575 4.71572 11.4291C4.7718 11.5008 4.81083 11.5843 4.82987 11.6733C4.84891 11.7623 4.84745 11.8545 4.82561 11.9428L3.23561 18.3028C3.2323 18.3145 3.23108 18.3267 3.23201 18.3388C3.23201 18.3436 3.23441 18.3484 3.23561 18.352C3.24041 18.3616 3.25121 18.376 3.27161 18.388C3.29321 18.4 3.31241 18.4 3.32201 18.4C3.32626 18.3992 3.33033 18.3975 3.33401 18.3952C3.34478 18.3897 3.35453 18.3824 3.36281 18.3736L3.36761 18.3688L13.7776 7.74162C13.7885 7.73144 13.7956 7.71793 13.798 7.70323C13.8 7.68519 13.7971 7.66695 13.7896 7.65042C13.7835 7.63436 13.7731 7.62025 13.7596 7.60963C13.7536 7.60483 13.744 7.60002 13.7236 7.60002H9.79961C9.70365 7.60009 9.60908 7.57715 9.52383 7.53312C9.43858 7.48908 9.36513 7.42524 9.30964 7.34696C9.25416 7.26867 9.21827 7.17822 9.20496 7.08319C9.19166 6.98817 9.20135 6.89134 9.23321 6.80082L11.0248 1.69602C11.0282 1.68484 11.0289 1.67302 11.0269 1.66151C11.0249 1.65 11.0201 1.63913 11.0131 1.62978C11.0061 1.62043 10.997 1.61287 10.9865 1.6077C10.976 1.60253 10.9645 1.5999 10.9528 1.60002H4.65401H4.65521Z" fill="white"/>
</svg>
