<svg width="24" height="30" viewBox="0 0 24 30" fill="none" xmlns="http://www.w3.org/2000/svg">
<path d="M11.9883 28.3332C11.9883 28.3332 1.3291 20.3332 1.3291 12.3332C1.3291 5.6665 6.6587 1.6665 11.9883 1.6665C17.3179 1.6665 22.6475 5.6665 22.6475 12.3332C22.6475 20.3332 11.9883 28.3332 11.9883 28.3332ZM11.9883 16.3332C13.0484 16.3332 14.0651 15.9117 14.8147 15.1616C15.5644 14.4115 15.9855 13.394 15.9855 12.3332C15.9855 11.2723 15.5644 10.2549 14.8147 9.50474C14.0651 8.7546 13.0484 8.33317 11.9883 8.33317C10.9282 8.33317 9.91146 8.7546 9.16184 9.50474C8.41222 10.2549 7.99109 11.2723 7.99109 12.3332C7.99109 13.394 8.41222 14.4115 9.16184 15.1616C9.91146 15.9117 10.9282 16.3332 11.9883 16.3332V16.3332Z" stroke="url(#paint0_linear)" stroke-width="2"/>
<defs>
<linearGradient id="paint0_linear" x1="-18.6723" y1="-52.3506" x2="37.3007" y2="-51.0236" gradientUnits="userSpaceOnUse">
<stop stop-color="#005FAF"/>
<stop offset="1" stop-color="#0A356D"/>
</linearGradient>
</defs>
</svg>
