<svg width="18" height="20" viewBox="0 0 18 20" fill="none" xmlns="http://www.w3.org/2000/svg">
<path d="M11.3996 0.400029C11.9569 0.399861 12.5033 0.554955 12.9774 0.847919C13.4516 1.14088 13.8347 1.56013 14.0839 2.05866C14.3331 2.55718 14.4385 3.11527 14.3883 3.67034C14.3381 4.22542 14.1342 4.75553 13.7996 5.20123L16.1996 5.20003C16.5179 5.20003 16.8231 5.32646 17.0481 5.5515C17.2732 5.77655 17.3996 6.08177 17.3996 6.40003V10C17.3996 10.3183 17.2732 10.6235 17.0481 10.8486C16.8231 11.0736 16.5179 11.2 16.1996 11.2V16.6C16.1996 17.3957 15.8835 18.1587 15.3209 18.7214C14.7583 19.284 13.9953 19.6 13.1996 19.6H4.79961C4.00396 19.6 3.2409 19.284 2.67829 18.7214C2.11568 18.1587 1.79961 17.3957 1.79961 16.6V11.2C1.48135 11.2 1.17612 11.0736 0.951081 10.8486C0.726038 10.6235 0.599609 10.3183 0.599609 10V6.40003C0.599609 6.08177 0.726038 5.77655 0.951081 5.5515C1.17612 5.32646 1.48135 5.20003 1.79961 5.20003L4.19961 5.20123C3.96323 4.88606 3.79124 4.52741 3.69347 4.14577C3.59569 3.76413 3.57405 3.36697 3.62976 2.97696C3.68548 2.58696 3.81746 2.21175 4.01819 1.87275C4.21891 1.53375 4.48444 1.23761 4.79961 1.00123C5.11478 0.764849 5.47343 0.592863 5.85507 0.495088C6.23671 0.397313 6.63387 0.375665 7.02387 0.43138C7.41388 0.487095 7.78909 0.619083 8.12809 0.819806C8.46709 1.02053 8.76323 1.28606 8.99961 1.60123C9.27827 1.22773 9.64044 0.92458 10.0572 0.71601C10.4739 0.507441 10.9336 0.399232 11.3996 0.400029ZM8.39961 11.2H2.99961V16.6C2.99961 17.0774 3.18925 17.5353 3.52682 17.8728C3.86438 18.2104 4.32222 18.4 4.79961 18.4H8.39961V11.2ZM14.9996 11.2H9.59961V18.4H13.1996C13.677 18.4 14.1348 18.2104 14.4724 17.8728C14.81 17.5353 14.9996 17.0774 14.9996 16.6V11.2ZM8.39961 6.40003H1.79961V10H8.39961V6.40003ZM16.1996 6.40003H9.59961V10H16.1996V6.40003ZM11.3996 1.60003C10.9222 1.60003 10.4644 1.78967 10.1268 2.12724C9.78925 2.4648 9.59961 2.92264 9.59961 3.40003V5.20003H11.3996C11.877 5.20003 12.3348 5.01039 12.6724 4.67282C13.01 4.33526 13.1996 3.87742 13.1996 3.40003C13.1996 2.92264 13.01 2.4648 12.6724 2.12724C12.3348 1.78967 11.877 1.60003 11.3996 1.60003ZM6.59961 1.60003C6.13735 1.60026 5.6929 1.77832 5.35835 2.09732C5.0238 2.41632 4.8248 2.8518 4.80258 3.31353C4.78037 3.77525 4.93664 4.22783 5.23902 4.57747C5.5414 4.92711 5.96671 5.14702 6.42681 5.19163L6.59961 5.20003H8.39961V3.40003L8.39121 3.22723C8.34825 2.78184 8.14095 2.36841 7.80971 2.06757C7.47848 1.76673 7.04707 1.60005 6.59961 1.60003Z" fill="url(#paint0_linear)"/>
<defs>
<linearGradient id="paint0_linear" x1="-5.46883" y1="-10.8" x2="30.4989" y2="-9.28423" gradientUnits="userSpaceOnUse">
<stop offset="0.165898" stop-color="#FF8008"/>
<stop offset="0.949573" stop-color="#FFC837"/>
</linearGradient>
</defs>
</svg>
