<svg width="19" height="18" viewBox="0 0 19 18" fill="none" xmlns="http://www.w3.org/2000/svg">
<path d="M13.1042 11H12.2834L11.9925 10.73C13.0107 9.59 13.6237 8.11 13.6237 6.5C13.6237 2.91 10.6003 0 6.87043 0C3.14056 0 0.117188 2.91 0.117188 6.5C0.117188 10.09 3.14056 13 6.87043 13C8.54316 13 10.0808 12.41 11.2652 11.43L11.5458 11.71V12.5L16.7406 17.49L18.2886 16L13.1042 11ZM6.87043 11C4.28342 11 2.19511 8.99 2.19511 6.5C2.19511 4.01 4.28342 2 6.87043 2C9.45745 2 11.5458 4.01 11.5458 6.5C11.5458 8.99 9.45745 11 6.87043 11Z" fill="white"/>
</svg>
