<svg width="27" height="26" viewBox="0 0 27 26" fill="none" xmlns="http://www.w3.org/2000/svg">
<path d="M26.1256 14.9886C26.0059 14.8688 25.8577 14.7814 25.695 14.7346C25.5323 14.6878 25.3604 14.6832 25.1954 14.7211C23.3788 15.1379 21.4863 15.0861 19.6952 14.5707C17.9042 14.0553 16.2733 13.0931 14.9555 11.7744C13.6377 10.4556 12.6763 8.82352 12.1613 7.03118C11.6463 5.23884 11.5947 3.34497 12.0112 1.5272C12.0491 1.36209 12.0444 1.19007 11.9976 1.02728C11.9508 0.864484 11.8634 0.716254 11.7437 0.596494C11.624 0.476733 11.4758 0.389367 11.3132 0.342592C11.1505 0.295816 10.9786 0.291165 10.8136 0.329074C8.55376 0.850739 6.47468 1.96824 4.79221 3.56554C3.10974 5.16285 1.88521 7.18173 1.24577 9.41256C0.60633 11.6434 0.575288 14.0049 1.15587 16.2517C1.73645 18.4986 2.90748 20.549 4.54739 22.1901C6.18729 23.8311 8.23627 25.003 10.4816 25.5839C12.7269 26.1649 15.0867 26.1338 17.316 25.4939C19.5452 24.854 21.5627 23.6286 23.1589 21.9449C24.755 20.2613 25.8717 18.1807 26.393 15.9193C26.4309 15.7542 26.4263 15.5822 26.3795 15.4193C26.3327 15.2565 26.2454 15.1083 26.1257 14.9885L26.1256 14.9886ZM20.6256 21.5677C18.677 23.1506 16.241 24.0098 13.7313 23.9997C10.817 23.9964 8.02295 22.8364 5.96221 20.7742C3.90147 18.712 2.7423 15.9161 2.73899 12.9997C2.72884 10.4882 3.58753 8.05054 5.16929 6.10057C6.38907 4.58939 7.98462 3.42588 9.79579 2.72682C9.75482 3.14895 9.73409 3.57407 9.73409 3.9997C9.73799 7.44632 11.1079 10.7506 13.5433 13.1878C15.9788 15.6249 19.2808 16.9958 22.725 16.9997C23.1503 16.9997 23.5743 16.9791 23.9971 16.938C23.2985 18.7504 22.1357 20.3471 20.6256 21.5677Z" fill="url(#paint0_linear)"/>
<defs>
<linearGradient id="paint0_linear" x1="-23.3478" y1="-51.7435" x2="44.0456" y2="-49.7462" gradientUnits="userSpaceOnUse">
<stop stop-color="#005FAF"/>
<stop offset="1" stop-color="#0A356D"/>
</linearGradient>
</defs>
</svg>
