<svg width="33" height="24" viewBox="0 0 33 24" fill="none" xmlns="http://www.w3.org/2000/svg">
<path fill-rule="evenodd" clip-rule="evenodd" d="M30.5883 24C30.5883 24 32.5869 24 32.5869 22C32.5869 20 30.5883 14 22.5939 14C14.5996 14 12.601 20 12.601 22C12.601 24 14.5996 24 14.5996 24H30.5883ZM14.6096 22.112V22.108V22.112ZM14.6435 22H30.5444C30.5537 21.9989 30.5631 21.9976 30.5723 21.996L30.5883 21.992C30.5843 21.464 30.2546 19.932 29.0694 18.552C27.9662 17.258 26.0275 16 22.5939 16C19.1624 16 17.2237 17.26 16.1185 18.552C14.9333 19.932 14.6016 21.466 14.5996 21.992C14.6142 21.9948 14.6288 21.9975 14.6435 22ZM30.5783 22.112V22.108V22.112ZM22.5939 10C23.6541 10 24.6708 9.57857 25.4204 8.82843C26.17 8.07828 26.5911 7.06087 26.5911 6C26.5911 4.93913 26.17 3.92172 25.4204 3.17157C24.6708 2.42143 23.6541 2 22.5939 2C21.5338 2 20.5171 2.42143 19.7675 3.17157C19.0179 3.92172 18.5968 4.93913 18.5968 6C18.5968 7.06087 19.0179 8.07828 19.7675 8.82843C20.5171 9.57857 21.5338 10 22.5939 10ZM28.5897 6C28.5897 6.78793 28.4347 7.56815 28.1333 8.2961C27.832 9.02405 27.3904 9.68549 26.8336 10.2426C26.2769 10.7998 25.6159 11.2417 24.8884 11.5433C24.161 11.8448 23.3813 12 22.5939 12C21.8066 12 21.0269 11.8448 20.2995 11.5433C19.572 11.2417 18.911 10.7998 18.3543 10.2426C17.7975 9.68549 17.3559 9.02405 17.0546 8.2961C16.7532 7.56815 16.5982 6.78793 16.5982 6C16.5982 4.4087 17.2299 2.88258 18.3543 1.75736C19.4787 0.632141 21.0038 0 22.5939 0C24.1841 0 25.7092 0.632141 26.8336 1.75736C27.958 2.88258 28.5897 4.4087 28.5897 6ZM14.4716 14.56C13.6722 14.3081 12.8481 14.1425 12.0134 14.066C11.5444 14.0214 11.0735 13.9993 10.6024 14C2.60797 14 0.609375 20 0.609375 22C0.609375 23.334 1.27491 24 2.60797 24H11.0341C10.7378 23.3756 10.59 22.6911 10.6024 22C10.6024 19.98 11.3558 17.916 12.7808 16.192C13.2665 15.604 13.8321 15.054 14.4716 14.56ZM10.4425 16C7.10881 16.04 5.21614 17.28 4.12691 18.552C2.93374 19.94 2.60797 21.478 2.60797 22H8.60377C8.60377 19.91 9.24931 17.828 10.4425 16ZM3.60727 7C3.60727 5.4087 4.23897 3.88258 5.3634 2.75736C6.48783 1.63214 8.01288 1 9.60306 1C11.1932 1 12.7183 1.63214 13.8427 2.75736C14.9672 3.88258 15.5989 5.4087 15.5989 7C15.5989 8.5913 14.9672 10.1174 13.8427 11.2426C12.7183 12.3679 11.1932 13 9.60306 13C8.01288 13 6.48783 12.3679 5.3634 11.2426C4.23897 10.1174 3.60727 8.5913 3.60727 7ZM9.60306 3C8.54294 3 7.52624 3.42143 6.77662 4.17157C6.027 4.92172 5.60587 5.93913 5.60587 7C5.60587 8.06087 6.027 9.07828 6.77662 9.82843C7.52624 10.5786 8.54294 11 9.60306 11C10.6632 11 11.6799 10.5786 12.4295 9.82843C13.1791 9.07828 13.6003 8.06087 13.6003 7C13.6003 5.93913 13.1791 4.92172 12.4295 4.17157C11.6799 3.42143 10.6632 3 9.60306 3Z" fill="url(#paint0_linear)"/>
<defs>
<linearGradient id="paint0_linear" x1="-29.3927" y1="-48.6154" x2="54.483" y2="-45.3012" gradientUnits="userSpaceOnUse">
<stop stop-color="#005FAF"/>
<stop offset="1" stop-color="#0A356D"/>
</linearGradient>
</defs>
</svg>
