<svg width="43" height="48" viewBox="0 0 43 48" fill="none" xmlns="http://www.w3.org/2000/svg">
<path fill-rule="evenodd" clip-rule="evenodd" d="M14.3171 2.6017C9.22308 5.11224 6.60345 6.11733 2.11408 7.28339L0 7.83273L0.307853 12.5726C0.921635 22.0121 4.10695 30.959 9.35873 37.9947C11.8956 41.3935 16.6154 45.6752 19.6261 47.3096C21.2746 48.2046 21.3357 48.2036 23.0644 47.265C25.8674 45.7435 31.5131 40.127 34.2477 36.1396C38.9386 29.3008 41.6727 21.2189 42.2899 12.3685L42.6059 7.83224L40.4933 7.28339C36.0784 6.13624 33.4064 5.10885 28.3042 2.59442C24.927 0.930424 22.4208 0 21.3169 0C20.212 0 17.7049 0.931879 14.3171 2.6017ZM27.1118 4.16873C31.9912 6.56776 35.2266 7.85697 38.5596 8.73018L40.6626 9.28146L40.3268 12.7617C39.3566 22.8199 36.3666 30.6764 30.8459 37.6737C28.8478 40.2065 24.1708 44.4373 21.8884 45.7765C20.2182 46.7564 12.0221 39.2039 8.60834 33.5394C5.17867 27.8482 2.94962 20.6322 2.29014 13.0846L1.9717 9.44194L6.16428 8.06594C8.47029 7.30909 12.5498 5.62279 15.2296 4.31855C17.9093 3.0143 20.6589 1.9457 21.3395 1.94327C22.0197 1.94133 24.6172 2.94255 27.1118 4.16873ZM24.6826 20.5425C22.4641 24.0441 20.5877 26.9925 20.5126 27.0943C20.4371 27.1961 19.16 26.16 17.6746 24.7913C14.8688 22.2065 14.3633 21.9486 13.8245 22.8272C13.4642 23.4143 15.1324 25.3207 18.527 28.2017L20.7998 30.1309L23.5099 25.8967C30.7675 14.5571 30.4024 15.2373 29.5245 14.6851C28.8328 14.2497 28.132 15.0977 24.6826 20.5425Z" fill="url(#paint0_linear)"/>
<defs>
<linearGradient id="paint0_linear" x1="-15.39" y1="-27.9854" x2="75.8217" y2="-24.0841" gradientUnits="userSpaceOnUse">
<stop offset="0.165898" stop-color="#FF8008"/>
<stop offset="0.949573" stop-color="#FFC837"/>
</linearGradient>
</defs>
</svg>
