<svg width="56" height="57" viewBox="0 0 56 57" fill="none" xmlns="http://www.w3.org/2000/svg">
<g clip-path="url(#clip0)">
<path d="M16.5167 4.59033H10.1807C5.37617 4.59033 1.18347 8.00028 0.211358 12.6984C0.119573 13.1421 0.404884 13.5763 0.848604 13.6681C1.292 13.7601 1.72642 13.4746 1.81831 13.0309C2.63355 9.09099 6.15049 6.23131 10.1807 6.23131H16.5167C21.2254 6.23131 25.0564 10.0622 25.0564 14.7711V38.9357C25.0564 45.3913 19.8044 50.6434 13.3487 50.6434C6.89298 50.6434 1.64098 45.3914 1.64098 38.9357V18.0191C1.64098 17.566 1.27362 17.1986 0.820489 17.1986C0.36736 17.1986 0 17.566 0 18.0191V38.9358C0 46.2962 5.98815 52.2845 13.3487 52.2845C20.7092 52.2845 26.6974 46.2963 26.6974 38.9358V14.7711C26.6973 9.15739 22.1303 4.59033 16.5167 4.59033Z" fill="url(#paint0_linear)"/>
<path d="M13.9096 9.65039H12.7878C11.5249 9.65039 10.4973 10.6779 10.4973 11.9409V15.3072C8.63111 15.869 6.95196 16.9937 5.71729 18.5205C4.32213 20.2459 3.55371 22.4203 3.55371 24.6432V27.4862C3.55371 29.0585 4.8328 30.3374 6.40496 30.3374C7.97713 30.3374 9.25622 29.0583 9.25622 27.4862V24.6891C9.25622 22.4326 11.092 20.5968 13.3485 20.5968C15.6049 20.5968 17.4408 22.4326 17.4408 24.6891V27.4862C17.4408 29.0585 18.7198 30.3374 20.292 30.3374C21.8642 30.3374 23.1433 29.0583 23.1433 27.4862V24.6432C23.1433 22.4203 22.375 20.2459 20.9797 18.5205C19.745 16.9937 18.0659 15.8691 16.1996 15.3072V11.9409C16.2 10.6779 15.1725 9.65039 13.9096 9.65039ZM19.704 19.5523C20.8806 21.0074 21.5025 22.7677 21.5025 24.6431V27.4861C21.5025 28.1535 20.9596 28.6963 20.2922 28.6963C19.6249 28.6963 19.082 28.1534 19.082 27.4861V24.689C19.082 21.5277 16.51 18.9557 13.3487 18.9557C10.1874 18.9557 7.61546 21.5277 7.61546 24.689V27.4861C7.61546 28.1535 7.07251 28.6963 6.40518 28.6963C5.73785 28.6963 5.19491 28.1534 5.19491 27.4861V24.6431C5.19491 22.7677 5.81684 21.0074 6.99342 19.5523C8.13685 18.1384 9.73713 17.1392 11.4997 16.7389C11.8732 16.6541 12.1384 16.3218 12.1384 15.9388V11.9409C12.1384 11.5828 12.4298 11.2914 12.7879 11.2914H13.9097C14.2678 11.2914 14.5592 11.5827 14.5592 11.9409V15.9388C14.5592 16.3219 14.8244 16.6541 15.198 16.7389C16.9603 17.1392 18.5607 18.1383 19.704 19.5523Z" fill="url(#paint1_linear)"/>
<path d="M45.8194 4.59033H39.4836C33.8699 4.59033 29.3027 9.15739 29.3027 14.7711V22.7503C29.3027 23.2034 29.67 23.5708 30.1232 23.5708C30.5765 23.5708 30.9437 23.2034 30.9437 22.7503V14.7711C30.9437 10.0622 34.7747 6.23131 39.4836 6.23131H45.8194C50.5283 6.23131 54.3593 10.0622 54.3593 14.7711V38.9357C54.3593 45.3913 49.1072 50.6434 42.6514 50.6434C36.1958 50.6434 30.9437 45.3914 30.9437 38.9357V27.892C30.9437 27.4389 30.5765 27.0715 30.1232 27.0715C29.67 27.0715 29.3027 27.4389 29.3027 27.892V38.9357C29.3027 46.2961 35.2909 52.2844 42.6516 52.2844C50.012 52.2844 56.0003 46.2962 56.0003 38.9357V14.7711C56.0002 9.15739 51.4331 4.59033 45.8194 4.59033Z" fill="url(#paint2_linear)"/>
<path d="M43.2123 9.65039H42.0906C40.8275 9.65039 39.8001 10.6779 39.8001 11.9409V15.3072C37.9337 15.869 36.2547 16.9937 35.02 18.5205C33.6248 20.2459 32.8564 22.4203 32.8564 24.6432V27.4862C32.8564 29.0585 34.1355 30.3374 35.7078 30.3374C37.28 30.3374 38.5591 29.0583 38.5591 27.4862V24.6891C38.5591 22.4326 40.3949 20.5968 42.6513 20.5968C44.9078 20.5968 46.7436 22.4326 46.7436 24.6891V27.4862C46.7436 29.0585 48.0227 30.3374 49.5949 30.3374C51.167 30.3374 52.4461 29.0583 52.4461 27.4862V24.6432C52.4461 22.4203 51.6778 20.2459 50.2825 18.5205C49.0479 16.9937 47.3687 15.8691 45.5026 15.3072V11.9409C45.5027 10.6779 44.4752 9.65039 43.2123 9.65039ZM49.0067 19.5523C50.1833 21.0074 50.8052 22.7677 50.8052 24.6431V27.4861C50.8052 28.1535 50.2623 28.6963 49.595 28.6963C48.9276 28.6963 48.3847 28.1534 48.3847 27.4861V24.689C48.3847 21.5277 45.8127 18.9557 42.6513 18.9557C39.4902 18.9557 36.9182 21.5277 36.9182 24.689V27.4861C36.9182 28.1535 36.3751 28.6963 35.7078 28.6963C35.0405 28.6963 34.4975 28.1534 34.4975 27.4861V24.6431C34.4975 22.7677 35.1196 21.0074 36.296 19.5523C37.4395 18.1384 39.0399 17.1392 40.8024 16.7389C41.176 16.6541 41.4412 16.3218 41.4412 15.9388V11.9409C41.4412 11.5828 41.7325 11.2914 42.0907 11.2914H43.2124C43.5705 11.2914 43.8619 11.5827 43.8619 11.9409V15.9388C43.8619 16.3219 44.1271 16.6541 44.5007 16.7389C46.263 17.1392 47.8633 18.1383 49.0067 19.5523Z" fill="url(#paint3_linear)"/>
</g>
<defs>
<linearGradient id="paint0_linear" x1="-9.64354" y1="-23.2312" x2="47.5738" y2="-21.6887" gradientUnits="userSpaceOnUse">
<stop offset="0.165898" stop-color="#FF8008"/>
<stop offset="0.949573" stop-color="#FFC837"/>
</linearGradient>
<linearGradient id="paint1_linear" x1="-3.52236" y1="-2.41705" x2="38.4049" y2="-0.504864" gradientUnits="userSpaceOnUse">
<stop offset="0.165898" stop-color="#FF8008"/>
<stop offset="0.949573" stop-color="#FFC837"/>
</linearGradient>
<linearGradient id="paint2_linear" x1="19.6591" y1="-23.2312" x2="76.8768" y2="-21.6886" gradientUnits="userSpaceOnUse">
<stop offset="0.165898" stop-color="#FF8008"/>
<stop offset="0.949573" stop-color="#FFC837"/>
</linearGradient>
<linearGradient id="paint3_linear" x1="25.7803" y1="-2.41705" x2="67.7079" y2="-0.504843" gradientUnits="userSpaceOnUse">
<stop offset="0.165898" stop-color="#FF8008"/>
<stop offset="0.949573" stop-color="#FFC837"/>
</linearGradient>
<clipPath id="clip0">
<rect width="56" height="56" fill="white" transform="translate(0 0.4375)"/>
</clipPath>
</defs>
</svg>
