<svg width="32" height="32" viewBox="0 0 32 32" fill="none" xmlns="http://www.w3.org/2000/svg">
<path fill-rule="evenodd" clip-rule="evenodd" d="M23.4487 7.8942L9.44873 14.8942L8.55273 13.1062L22.5527 6.1062L23.4487 7.8942ZM22.5527 25.8942L8.55273 18.8942L9.44873 17.1062L23.4487 24.1062L22.5527 25.8942Z" fill="url(#paint0_linear)"/>
<path fill-rule="evenodd" clip-rule="evenodd" d="M27 8C27.7956 8 28.5587 7.68393 29.1213 7.12132C29.6839 6.55871 30 5.79565 30 5C30 4.20435 29.6839 3.44129 29.1213 2.87868C28.5587 2.31607 27.7956 2 27 2C26.2044 2 25.4413 2.31607 24.8787 2.87868C24.3161 3.44129 24 4.20435 24 5C24 5.79565 24.3161 6.55871 24.8787 7.12132C25.4413 7.68393 26.2044 8 27 8ZM27 10C28.3261 10 29.5979 9.47322 30.5355 8.53553C31.4732 7.59785 32 6.32608 32 5C32 3.67392 31.4732 2.40215 30.5355 1.46447C29.5979 0.526784 28.3261 0 27 0C25.6739 0 24.4021 0.526784 23.4645 1.46447C22.5268 2.40215 22 3.67392 22 5C22 6.32608 22.5268 7.59785 23.4645 8.53553C24.4021 9.47322 25.6739 10 27 10ZM27 30C27.7956 30 28.5587 29.6839 29.1213 29.1213C29.6839 28.5587 30 27.7956 30 27C30 26.2044 29.6839 25.4413 29.1213 24.8787C28.5587 24.3161 27.7956 24 27 24C26.2044 24 25.4413 24.3161 24.8787 24.8787C24.3161 25.4413 24 26.2044 24 27C24 27.7956 24.3161 28.5587 24.8787 29.1213C25.4413 29.6839 26.2044 30 27 30ZM27 32C28.3261 32 29.5979 31.4732 30.5355 30.5355C31.4732 29.5979 32 28.3261 32 27C32 25.6739 31.4732 24.4021 30.5355 23.4645C29.5979 22.5268 28.3261 22 27 22C25.6739 22 24.4021 22.5268 23.4645 23.4645C22.5268 24.4021 22 25.6739 22 27C22 28.3261 22.5268 29.5979 23.4645 30.5355C24.4021 31.4732 25.6739 32 27 32ZM5 19C5.79565 19 6.55871 18.6839 7.12132 18.1213C7.68393 17.5587 8 16.7956 8 16C8 15.2044 7.68393 14.4413 7.12132 13.8787C6.55871 13.3161 5.79565 13 5 13C4.20435 13 3.44129 13.3161 2.87868 13.8787C2.31607 14.4413 2 15.2044 2 16C2 16.7956 2.31607 17.5587 2.87868 18.1213C3.44129 18.6839 4.20435 19 5 19ZM5 21C6.32608 21 7.59785 20.4732 8.53553 19.5355C9.47322 18.5979 10 17.3261 10 16C10 14.6739 9.47322 13.4021 8.53553 12.4645C7.59785 11.5268 6.32608 11 5 11C3.67392 11 2.40215 11.5268 1.46447 12.4645C0.526784 13.4021 0 14.6739 0 16C0 17.3261 0.526784 18.5979 1.46447 19.5355C2.40215 20.4732 3.67392 21 5 21Z" fill="url(#paint1_linear)"/>
<defs>
<linearGradient id="paint0_linear" x1="3.17205" y1="-5.4368" x2="35.0782" y2="-4.28002" gradientUnits="userSpaceOnUse">
<stop offset="0.165898" stop-color="#FF8008"/>
<stop offset="0.949573" stop-color="#FFC837"/>
</linearGradient>
<linearGradient id="paint1_linear" x1="-11.5589" y1="-18.6667" x2="56.9139" y2="-15.3689" gradientUnits="userSpaceOnUse">
<stop offset="0.165898" stop-color="#FF8008"/>
<stop offset="0.949573" stop-color="#FFC837"/>
</linearGradient>
</defs>
</svg>
